<svg width="32" height="36" viewBox="0 0 32 36" fill="none" xmlns="http://www.w3.org/2000/svg">
<mask id="mask0_30_5576" style="mask-type:luminance" maskUnits="userSpaceOnUse" x="0" y="0" width="32" height="36">
<path d="M0 0H31.2318V36H0V0Z" fill="white"/>
</mask>
<g mask="url(#mask0_30_5576)">
<path fill-rule="evenodd" clip-rule="evenodd" d="M15.6108 0.012085L-0.00012207 9.0245V27.0506L15.6108 36.0618L31.2205 27.0506V9.0245L15.6108 0.012085ZM5.14557 17.2174L7.53589 15.8366V7.43386L9.78092 6.1375V14.5402L12.1712 13.1607V4.75795L15.6108 2.77243L19.6526 5.10563V11.4111L4.54334 20.1354V26.9128L2.39019 25.6698V10.4053L5.14557 8.81341V17.2174ZM22.0429 12.7906V6.48642L24.288 7.78278V14.5601L9.17869 23.2832V29.5887L6.93241 28.2923V21.515L22.0429 12.7906ZM26.6783 15.9397V9.16233L28.8314 10.4053V25.6698L26.076 27.2604V18.8577L23.6857 20.2373V28.64L21.4407 29.9376V21.5349L19.0504 22.9144V31.3171L15.6108 33.3027L11.569 30.9695V24.664L26.6783 15.9397Z" fill="#0072F5"/>
</g>
</svg>
